<svg xmlns="http://www.w3.org/2000/svg" viewBox="0 0 100 100">
  <defs>
    <linearGradient id="grad" x1="0%" y1="0%" x2="100%" y2="100%">
      <stop offset="0%" style="stop-color:#3b82f6;stop-opacity:1" />
      <stop offset="100%" style="stop-color:#06b6d4;stop-opacity:1" />
    </linearGradient>
  </defs>
  <rect width="100" height="100" rx="20" fill="url(#grad)"/>
  <path d="M50 25C35 25 25 35 25 50C25 55 30 60 35 60C38 60 40 58 42 55C44 58 48 60 52 60C56 60 60 58 62 55C64 58 66 60 69 60C74 60 79 55 79 50C79 35 69 25 54 25Z" fill="white" opacity="0.9"/>
  <circle cx="38" cy="45" r="5" fill="url(#grad)"/>
  <circle cx="58" cy="45" r="5" fill="url(#grad)"/>
  <path d="M35 70C35 70 42 80 50 80C58 80 65 70 65 70" stroke="white" stroke-width="4" stroke-linecap="round" fill="none"/>
</svg>
